<svg xmlns="http://www.w3.org/2000/svg" width="154" height="44" fill="none"><path fill="#fff" d="M60.666 19v-2.376q1.079 0 2.024-.396a5.2 5.2 0 0 0 2.75-2.838 5.5 5.5 0 0 0 .396-2.09q0-1.122-.396-2.09a5.3 5.3 0 0 0-1.1-1.694 4.9 4.9 0 0 0-1.65-1.122 4.95 4.95 0 0 0-2.024-.418V3.6q2.266 0 4.004.99a6.97 6.97 0 0 1 2.75 2.706q1.012 1.737 1.012 4.004 0 2.244-1.012 3.982a7.1 7.1 0 0 1-2.75 2.728q-1.737.99-4.004.99m-3.19 0v-2.376h3.19V19zm-1.65 0V3.6h2.552V19zm1.65-13.024V3.6h3.19v2.376zM75.26 19.264q-1.608 0-2.86-.726a5.26 5.26 0 0 1-1.959-2.046q-.704-1.299-.704-2.992 0-1.695.726-2.992a5.25 5.25 0 0 1 1.98-2.024q1.254-.749 2.904-.748 1.452 0 2.64.77 1.188.747 1.87 2.178.704 1.43.704 3.41h-2.486q.022-1.43-.33-2.354-.33-.924-.968-1.364-.638-.462-1.518-.462-.924 0-1.584.418-.638.417-.99 1.232-.352.792-.352 2.002 0 1.077.418 1.848.419.77 1.122 1.188a3.3 3.3 0 0 0 1.606.396q.967 0 1.606-.44.638-.462.99-1.166l2.266.968a5.8 5.8 0 0 1-1.166 1.54q-.705.66-1.694 1.012-.99.352-2.222.352Zm-3.917-5.17.022-1.958h7.92v1.958zM85.268 19l4.29-11h2.552l-4.532 11zm-.176 0L80.538 8h2.53l4.312 11zm12.856.264q-1.606 0-2.86-.726a5.25 5.25 0 0 1-1.959-2.046q-.704-1.299-.704-2.992 0-1.695.727-2.992a5.25 5.25 0 0 1 1.98-2.024q1.253-.749 2.903-.748 1.453 0 2.64.77 1.189.747 1.87 2.178.704 1.43.704 3.41h-2.486q.023-1.43-.33-2.354-.33-.924-.968-1.364-.637-.462-1.517-.462-.924 0-1.584.418-.639.417-.99 1.232-.352.792-.352 2.002 0 1.077.417 1.848.419.77 1.123 1.188a3.3 3.3 0 0 0 1.606.396q.968 0 1.605-.44a3.16 3.16 0 0 0 .99-1.166l2.266.968a5.8 5.8 0 0 1-1.166 1.54 4.8 4.8 0 0 1-1.694 1.012q-.99.352-2.221.352m-3.916-5.17.022-1.958h7.919v1.958zM104.823 19l.022-15.4h2.464l-.022 15.4zm9.995.264q-1.672 0-2.97-.726a5.36 5.36 0 0 1-2.002-2.046q-.726-1.299-.726-2.992 0-1.695.704-2.992a5.2 5.2 0 0 1 2.002-2.024q1.298-.749 2.948-.748 1.671 0 2.948.748a5.2 5.2 0 0 1 2.002 2.024q.726 1.297.726 2.992 0 1.693-.726 2.992a5.37 5.37 0 0 1-2.002 2.046q-1.254.726-2.904.726m0-2.376q.88 0 1.54-.418a2.94 2.94 0 0 0 1.056-1.21q.396-.77.396-1.76t-.396-1.76a2.74 2.74 0 0 0-1.078-1.188 2.8 2.8 0 0 0-1.562-.44q-.88 0-1.562.44a2.9 2.9 0 0 0-1.078 1.188q-.374.77-.374 1.76t.374 1.76a3.1 3.1 0 0 0 1.078 1.21q.703.417 1.606.418m7.54 6.512V8h2.31l.154 2.024V23.4zm5.94-4.136q-1.387 0-2.398-.704-.99-.727-1.518-2.024-.528-1.299-.528-3.036 0-1.761.528-3.036.528-1.299 1.518-2.002 1.012-.726 2.398-.726 1.495 0 2.596.726 1.122.703 1.738 2.002.638 1.275.638 3.036 0 1.737-.638 3.036-.616 1.298-1.738 2.024-1.1.704-2.596.704m-.616-2.244a2.8 2.8 0 0 0 1.562-.44 3.2 3.2 0 0 0 1.078-1.254q.417-.792.418-1.826 0-1.035-.396-1.826a2.9 2.9 0 0 0-1.056-1.232q-.683-.44-1.584-.44-.837 0-1.496.44-.66.44-1.034 1.232-.352.791-.352 1.826 0 1.034.352 1.826.373.792 1.012 1.254.66.44 1.496.44m12.291 2.244q-1.606 0-2.86-.726a5.25 5.25 0 0 1-1.958-2.046q-.705-1.299-.704-2.992 0-1.695.726-2.992a5.25 5.25 0 0 1 1.98-2.024q1.254-.749 2.904-.748 1.452 0 2.64.77 1.188.747 1.87 2.178.704 1.43.704 3.41h-2.486q.021-1.43-.33-2.354-.33-.924-.968-1.364-.639-.462-1.518-.462-.924 0-1.584.418-.639.417-.99 1.232-.352.792-.352 2.002 0 1.077.418 1.848a3 3 0 0 0 1.122 1.188 3.3 3.3 0 0 0 1.606.396q.967 0 1.606-.44.637-.462.99-1.166l2.266.968a5.8 5.8 0 0 1-1.166 1.54q-.705.66-1.694 1.012-.99.352-2.222.352m-3.916-5.17.022-1.958h7.92v1.958zm12.419-.946q0-1.783.682-2.926.682-1.145 1.76-1.694a4.9 4.9 0 0 1 2.288-.572v2.354q-1.013 0-1.914.286-.88.264-1.43.88-.55.615-.55 1.628zM146.848 19V8h2.464v11zM66.496 40 60.49 24.6h2.552l6.16 15.4zm-12.298 0 6.138-15.4h2.574L56.904 40zm2.882-3.784V33.95h9.218v2.266zm15.581.704-1.496-1.694L76.885 29h2.97zM70.307 40V24.6h2.464V40zm6.996 0-3.872-5.698 1.606-1.716L80.23 40h-2.926Zm10.276 0-.11-5.654q0-1.123-.242-1.87-.243-.749-.748-1.144-.506-.396-1.364-.396-.77 0-1.364.33t-.99 1.012l-2.2-.77q.374-.727.968-1.364a4.2 4.2 0 0 1 1.496-1.012q.901-.396 2.156-.396 1.584 0 2.64.594a3.7 3.7 0 0 1 1.606 1.76q.528 1.166.528 2.882V40zm-3.124.264q-1.959 0-3.058-.88-1.079-.88-1.078-2.486-.001-1.716 1.144-2.618 1.166-.902 3.234-.902h3.454l.022 1.892h-2.706q-1.474 0-2.068.418-.573.396-.572 1.144 0 .637.506 1.012.528.352 1.452.352.814 0 1.408-.374.615-.397.946-1.012.33-.639.33-1.364h.924q0 2.243-.968 3.542-.946 1.276-2.97 1.276M99.97 40l-.11-2.046V24.6h2.443V40h-2.332Zm-3.585.264q-1.496 0-2.618-.704-1.1-.727-1.738-2.024-.616-1.299-.616-3.036 0-1.761.616-3.036.637-1.299 1.738-2.002 1.122-.726 2.618-.726 1.386 0 2.376.726 1.011.703 1.54 2.002.528 1.275.528 3.036 0 1.737-.528 3.036-.529 1.298-1.54 2.024-.99.704-2.376.704M97 38.02q.835 0 1.474-.44a2.96 2.96 0 0 0 1.012-1.254q.374-.792.374-1.826t-.374-1.826a2.8 2.8 0 0 0-1.012-1.232q-.639-.44-1.496-.44-.88 0-1.562.44a3.05 3.05 0 0 0-1.078 1.232q-.375.792-.396 1.826.021 1.034.396 1.826.396.792 1.078 1.254.704.44 1.584.44m12.625 2.244q-1.606 0-2.86-.726a5.25 5.25 0 0 1-1.958-2.046q-.704-1.299-.704-2.992 0-1.695.726-2.992a5.25 5.25 0 0 1 1.98-2.024q1.254-.749 2.904-.748 1.452 0 2.64.77 1.188.747 1.87 2.178.704 1.43.704 3.41h-2.486q.021-1.43-.33-2.354-.33-.924-.968-1.364-.639-.462-1.518-.462-.924 0-1.584.418-.639.417-.99 1.232-.352.792-.352 2.002 0 1.077.418 1.848a3 3 0 0 0 1.122 1.188 3.3 3.3 0 0 0 1.606.396q.967 0 1.606-.44.637-.462.99-1.166l2.266.968a5.8 5.8 0 0 1-1.166 1.54q-.705.66-1.694 1.012-.99.352-2.222.352m-3.916-5.17.022-1.958h7.92v1.958zM116.5 40V29h2.31l.154 2.024V40zm7.458 0v-5.632l2.464-.66V40zm7.48 0v-5.632l2.442-.66V40zm-7.48-5.632q0-1.32-.308-2.024-.285-.727-.836-1.012-.528-.286-1.254-.286-1.232-.023-1.914.814-.681.835-.682 2.398h-.924q0-1.74.506-2.97.507-1.254 1.452-1.892.947-.66 2.244-.66 2.003 0 3.08 1.232 1.1 1.21 1.1 3.74zm7.48 0q0-1.32-.308-2.024-.308-.727-.858-1.012-.527-.286-1.232-.286-1.254-.023-1.936.814-.681.835-.682 2.398h-.924q0-1.74.506-2.97.507-1.254 1.452-1.892.947-.66 2.244-.66 2.002 0 3.102 1.232 1.1 1.21 1.078 3.74zM136.109 40l.022-11h2.442l-.022 11zm1.232-13.09q-.594 0-1.034-.418a1.45 1.45 0 0 1-.418-1.034q0-.594.418-1.012a1.45 1.45 0 0 1 1.034-.418q.594 0 1.012.418.44.418.44 1.012c0 .594-.147.74-.44 1.034a1.38 1.38 0 0 1-1.012.418m8.712 13.354q-1.606 0-2.86-.726a5.25 5.25 0 0 1-1.958-2.046q-.704-1.299-.704-2.992 0-1.695.726-2.992a5.25 5.25 0 0 1 1.98-2.024q1.254-.749 2.904-.748 1.452 0 2.64.77 1.188.747 1.87 2.178.704 1.43.704 3.41h-2.486q.021-1.43-.33-2.354-.33-.924-.968-1.364-.639-.462-1.518-.462-.924 0-1.584.418-.639.417-.99 1.232-.352.792-.352 2.002 0 1.077.418 1.848a3 3 0 0 0 1.122 1.188 3.3 3.3 0 0 0 1.606.396q.967 0 1.606-.44.637-.462.99-1.166l2.266.968a5.8 5.8 0 0 1-1.166 1.54q-.704.66-1.694 1.012t-2.222.352m-3.916-5.17.022-1.958h7.92v1.958z"/><path fill="#FD5B4F" d="M23.331 27.03a.2.2 0 0 0 .286.15l8.338-4.094a.2.2 0 0 0 .106-.13 5.3 5.3 0 0 0 .14-1.293c0-.5-.07-.954-.137-1.357a.2.2 0 0 0-.11-.147l-8.338-4.053a.2.2 0 0 0-.285.147v.007c-.032.191-.067.4-.069.611-.033.214-.033.461-.033.688v.01c0 .086.008.179.016.266l.001.018a3 3 0 0 1 .019.311q.02.13.03.269l.001.012c.008.093.018.195.037.29a.2.2 0 0 0 .114.141l6.17 2.75-6.172 2.865a.2.2 0 0 0-.112.14c-.034.162-.07.372-.07.587-.034.211-.034.421-.034.65v.008c0 .335.035.707.102 1.154"/><path fill="#FD5B4F" fill-rule="evenodd" d="M20.564 11.823a.2.2 0 0 1 .105.147c.068.447.102.819.102 1.154v.009c0 .228 0 .438-.033.65a3 3 0 0 1-.07.585.2.2 0 0 1-.112.14l-6.172 2.866 6.169 2.75a.2.2 0 0 1 .114.142c.02.094.029.196.037.289l.001.012a4 4 0 0 0 .033.301q.002.135.016.279l.002.018c.007.087.015.18.015.265v.01c0 .228 0 .475-.033.689-.002.211-.036.42-.068.61l-.001.008a.2.2 0 0 1-.285.147l-8.338-4.053a.2.2 0 0 1-.11-.147 8 8 0 0 1-.136-1.357c0-.451.034-.87.14-1.292a.2.2 0 0 1 .105-.131l8.338-4.094a.2.2 0 0 1 .181.003" clip-rule="evenodd"/><path fill="#FD5B4F" fill-rule="evenodd" d="M39 4.5H5A4.5 4.5 0 0 0 .5 9v21A4.5 4.5 0 0 0 5 34.5h34a4.5 4.5 0 0 0 4.5-4.5V9A4.5 4.5 0 0 0 39 4.5M3 9a2 2 0 0 1 2-2h34a2 2 0 0 1 2 2v21a2 2 0 0 1-2 2H5a2 2 0 0 1-2-2z" clip-rule="evenodd"/><path fill="#FD5B4F" d="M5.25 37a1.25 1.25 0 1 0 0 2.5h33.5a1.25 1.25 0 1 0 0-2.5z"/></svg>